# This file uses centimeters as units for non-parametric coordinates.

mtllib Table.mtl
g default
v -8.199611 7.238583 4.393238
v -7.835375 7.238583 4.393238
v -6.584509 7.238583 4.393238
v 6.584508 7.238583 4.393238
v 7.835375 7.238583 4.393238
v 8.199611 7.238583 4.393238
v -8.199611 7.628372 4.393238
v -7.835375 7.628372 4.393238
v -6.584509 7.628372 4.393238
v 6.584508 7.628372 4.393238
v 7.835375 7.628372 4.393238
v 8.199611 7.628372 4.393238
v -8.199611 7.628372 4.180747
v -7.835375 7.628372 4.180747
v -6.584509 7.628372 4.180747
v 6.584508 7.628372 4.180747
v 7.835375 7.628372 4.180747
v 8.199611 7.628372 4.180747
v -8.199611 7.628372 2.672079
v -7.835375 7.628372 2.672079
v -6.584509 7.628372 2.672079
v 6.584508 7.628372 2.672079
v 7.835375 7.628372 2.672079
v 8.199611 7.628372 2.672079
v -8.199611 7.628372 -2.672078
v -7.835375 7.628372 -2.672078
v -6.584509 7.628372 -2.672078
v 6.584508 7.628372 -2.672078
v 7.835375 7.628372 -2.672078
v 8.199611 7.628372 -2.672078
v -8.199611 7.628372 -4.180747
v -7.835375 7.628372 -4.180747
v -6.584509 7.628372 -4.180747
v 6.584508 7.628372 -4.180747
v 7.835375 7.628372 -4.180747
v 8.199611 7.628372 -4.180747
v -8.199611 7.628372 -4.393238
v -7.835375 7.628372 -4.393238
v -6.584509 7.628372 -4.393238
v 6.584508 7.628372 -4.393238
v 7.835375 7.628372 -4.393238
v 8.199611 7.628372 -4.393238
v -8.199611 7.238583 -4.393238
v -7.835375 7.238583 -4.393238
v -6.584509 7.238583 -4.393238
v 6.584508 7.238583 -4.393238
v 7.835375 7.238583 -4.393238
v 8.199611 7.238583 -4.393238
v -8.199611 7.238583 -4.180747
v -7.835375 7.238583 -4.180747
v -6.584509 7.238583 -4.180747
v 6.584508 7.238583 -4.180747
v 7.835375 7.238583 -4.180747
v 8.199611 7.238583 -4.180747
v -8.199611 7.238583 -2.672079
v -7.835375 7.238583 -2.672079
v 7.835375 7.238583 -2.672079
v 8.199611 7.238583 -2.672079
v -8.199611 7.238583 2.672078
v -7.835375 7.238583 2.672078
v 7.835375 7.238583 2.672078
v 8.199611 7.238583 2.672078
v -8.199611 7.238583 4.180747
v -7.835375 7.238583 4.180747
v -6.584509 7.238583 4.180747
v 6.584508 7.238583 4.180747
v 7.835375 7.238583 4.180747
v 8.199611 7.238583 4.180747
v -7.835375 6.328714 -4.180747
v -6.584509 6.328714 -4.180747
v -6.584509 6.328714 -2.672079
v -7.835375 6.328714 -2.672079
v 6.584508 6.328714 -4.180747
v 6.584508 6.328714 -2.672079
v 7.835375 6.328714 -4.180747
v 7.835375 6.328714 -2.672079
v -6.584509 6.328714 2.672078
v -7.835375 6.328714 2.672078
v 6.584508 6.328714 2.672078
v 7.835375 6.328714 2.672078
v -6.584509 6.328714 4.180747
v -7.835375 6.328714 4.180747
v 6.584508 6.328714 4.180747
v 7.835375 6.328714 4.180747
v -7.666038 0.053112 -3.976510
v -6.753846 0.053112 -3.976510
v -6.753846 0.053112 -2.876316
v -7.666038 0.053112 -2.876316
v 6.737775 0.053112 -3.995892
v 7.682108 0.053112 -3.995892
v 7.682108 0.053112 -2.856934
v 6.737775 0.053112 -2.856934
v -7.608940 0.053112 2.945181
v -6.810944 0.053112 2.945181
v -6.810944 0.053112 3.907643
v -7.608940 0.053112 3.907643
v 6.784777 0.053112 2.913622
v 7.635106 0.053112 2.913622
v 7.635106 0.053112 3.939203
v 6.784777 0.053112 3.939203
v 6.584507 4.236849 -4.180747
v 7.835375 4.236849 -4.180747
v 7.835375 4.236849 -2.672079
v 6.584507 4.236849 -2.672079
v 6.662892 1.882812 -4.086208
v 7.756990 1.882812 -4.086208
v 7.756990 1.882812 -2.766618
v 6.662892 1.882812 -2.766618
v -7.835375 4.236849 -4.180747
v -6.584509 4.236849 -4.180747
v -6.584509 4.236849 -2.672079
v -7.835375 4.236849 -2.672079
v -7.748772 1.855323 -4.076295
v -6.671112 1.855323 -4.076295
v -6.671112 1.855323 -2.776530
v -7.748772 1.855323 -2.776530
v -7.835375 4.236849 2.672078
v -6.584509 4.236849 2.672078
v -6.584509 4.236849 4.180747
v -7.835375 4.236849 4.180747
v -7.706684 1.714553 2.827291
v -6.713199 1.714553 2.827291
v -6.713199 1.714553 4.025533
v -7.706684 1.714553 4.025533
v 6.584507 4.236849 2.672078
v 7.835375 4.236849 2.672078
v 7.835375 4.236849 4.180747
v 6.584507 4.236849 4.180747
v 6.686929 1.802413 2.795609
v 7.732953 1.802413 2.795609
v 7.732953 1.802413 4.057216
v 6.686929 1.802413 4.057216
vt 0.375000 0.000000
vt 0.425000 0.000000
vt 0.475000 0.000000
vt 0.525000 0.000000
vt 0.575000 0.000000
vt 0.625000 0.000000
vt 0.375000 0.250000
vt 0.425000 0.250000
vt 0.475000 0.250000
vt 0.525000 0.250000
vt 0.575000 0.250000
vt 0.625000 0.250000
vt 0.375000 0.300000
vt 0.425000 0.300000
vt 0.475000 0.300000
vt 0.525000 0.300000
vt 0.575000 0.300000
vt 0.625000 0.300000
vt 0.375000 0.350000
vt 0.425000 0.350000
vt 0.475000 0.350000
vt 0.525000 0.350000
vt 0.575000 0.350000
vt 0.625000 0.350000
vt 0.375000 0.400000
vt 0.425000 0.400000
vt 0.475000 0.400000
vt 0.525000 0.400000
vt 0.575000 0.400000
vt 0.625000 0.400000
vt 0.375000 0.450000
vt 0.425000 0.450000
vt 0.475000 0.450000
vt 0.525000 0.450000
vt 0.575000 0.450000
vt 0.625000 0.450000
vt 0.375000 0.500000
vt 0.425000 0.500000
vt 0.475000 0.500000
vt 0.525000 0.500000
vt 0.575000 0.500000
vt 0.625000 0.500000
vt 0.375000 0.750000
vt 0.425000 0.750000
vt 0.475000 0.750000
vt 0.525000 0.750000
vt 0.575000 0.750000
vt 0.625000 0.750000
vt 0.375000 0.800000
vt 0.425000 0.800000
vt 0.475000 0.800000
vt 0.525000 0.800000
vt 0.575000 0.800000
vt 0.625000 0.800000
vt 0.375000 0.850000
vt 0.425000 0.850000
vt 0.475000 0.850000
vt 0.525000 0.850000
vt 0.575000 0.850000
vt 0.625000 0.850000
vt 0.375000 0.900000
vt 0.425000 0.900000
vt 0.475000 0.900000
vt 0.525000 0.900000
vt 0.575000 0.900000
vt 0.625000 0.900000
vt 0.375000 0.950000
vt 0.425000 0.950000
vt 0.475000 0.950000
vt 0.525000 0.950000
vt 0.575000 0.950000
vt 0.625000 0.950000
vt 0.375000 1.000000
vt 0.425000 1.000000
vt 0.475000 1.000000
vt 0.525000 1.000000
vt 0.575000 1.000000
vt 0.625000 1.000000
vt 0.875000 0.000000
vt 0.825000 0.000000
vt 0.775000 0.000000
vt 0.725000 0.000000
vt 0.675000 0.000000
vt 0.875000 0.250000
vt 0.825000 0.250000
vt 0.775000 0.250000
vt 0.725000 0.250000
vt 0.675000 0.250000
vt 0.125000 0.000000
vt 0.175000 0.000000
vt 0.225000 0.000000
vt 0.275000 0.000000
vt 0.325000 0.000000
vt 0.125000 0.250000
vt 0.175000 0.250000
vt 0.225000 0.250000
vt 0.275000 0.250000
vt 0.325000 0.250000
vt 0.425000 0.800000
vt 0.475000 0.800000
vt 0.425000 0.850000
vt 0.525000 0.800000
vt 0.575000 0.800000
vt 0.575000 0.850000
vt 0.425000 0.900000
vt 0.575000 0.900000
vt 0.475000 0.950000
vt 0.425000 0.950000
vt 0.525000 0.950000
vt 0.575000 0.950000
vt 0.425000 0.800000
vt 0.475000 0.800000
vt 0.475000 0.850000
vt 0.425000 0.850000
vt 0.525000 0.800000
vt 0.575000 0.800000
vt 0.575000 0.850000
vt 0.525000 0.850000
vt 0.425000 0.900000
vt 0.475000 0.900000
vt 0.475000 0.950000
vt 0.425000 0.950000
vt 0.525000 0.900000
vt 0.575000 0.900000
vt 0.575000 0.950000
vt 0.525000 0.950000
vt 0.525000 0.800000
vt 0.575000 0.800000
vt 0.575000 0.850000
vt 0.525000 0.850000
vt 0.525000 0.800000
vt 0.575000 0.800000
vt 0.575000 0.850000
vt 0.525000 0.850000
vt 0.425000 0.800000
vt 0.475000 0.800000
vt 0.475000 0.850000
vt 0.425000 0.850000
vt 0.425000 0.800000
vt 0.475000 0.800000
vt 0.475000 0.850000
vt 0.425000 0.850000
vt 0.425000 0.900000
vt 0.475000 0.900000
vt 0.475000 0.950000
vt 0.425000 0.950000
vt 0.425000 0.900000
vt 0.475000 0.900000
vt 0.475000 0.950000
vt 0.425000 0.950000
vt 0.525000 0.900000
vt 0.575000 0.900000
vt 0.575000 0.950000
vt 0.525000 0.950000
vt 0.525000 0.900000
vt 0.575000 0.900000
vt 0.575000 0.950000
vt 0.525000 0.950000
vn 0.000000 0.000000 1.000000
vn 0.000000 0.000000 1.000000
vn 0.000000 0.000000 1.000000
vn 0.000000 0.000000 1.000000
vn 0.000000 0.000000 1.000000
vn 0.000000 0.000000 1.000000
vn 0.000000 0.000000 1.000000
vn 0.000000 0.000000 1.000000
vn 0.000000 0.000000 1.000000
vn 0.000000 0.000000 1.000000
vn 0.000000 0.000000 1.000000
vn 0.000000 0.000000 1.000000
vn 0.000000 1.000000 0.000000
vn 0.000000 1.000000 0.000000
vn 0.000000 1.000000 0.000000
vn 0.000000 1.000000 0.000000
vn 0.000000 1.000000 0.000000
vn 0.000000 1.000000 0.000000
vn 0.000000 1.000000 0.000000
vn 0.000000 1.000000 0.000000
vn 0.000000 1.000000 0.000000
vn 0.000000 1.000000 0.000000
vn 0.000000 1.000000 0.000000
vn 0.000000 1.000000 0.000000
vn 0.000000 1.000000 0.000000
vn 0.000000 1.000000 0.000000
vn 0.000000 1.000000 0.000000
vn 0.000000 1.000000 0.000000
vn 0.000000 1.000000 0.000000
vn 0.000000 1.000000 0.000000
vn 0.000000 1.000000 0.000000
vn 0.000000 1.000000 0.000000
vn 0.000000 1.000000 0.000000
vn 0.000000 1.000000 0.000000
vn 0.000000 1.000000 0.000000
vn 0.000000 1.000000 0.000000
vn 0.000000 1.000000 0.000000
vn 0.000000 1.000000 0.000000
vn 0.000000 1.000000 0.000000
vn 0.000000 1.000000 0.000000
vn 0.000000 1.000000 0.000000
vn 0.000000 1.000000 0.000000
vn 0.000000 1.000000 0.000000
vn 0.000000 1.000000 0.000000
vn 0.000000 1.000000 0.000000
vn 0.000000 1.000000 0.000000
vn 0.000000 1.000000 0.000000
vn 0.000000 1.000000 0.000000
vn 0.000000 0.000000 -1.000000
vn 0.000000 0.000000 -1.000000
vn 0.000000 0.000000 -1.000000
vn 0.000000 0.000000 -1.000000
vn 0.000000 0.000000 -1.000000
vn 0.000000 0.000000 -1.000000
vn 0.000000 0.000000 -1.000000
vn 0.000000 0.000000 -1.000000
vn 0.000000 0.000000 -1.000000
vn 0.000000 0.000000 -1.000000
vn 0.000000 0.000000 -1.000000
vn 0.000000 0.000000 -1.000000
vn 0.000000 -1.000000 0.000000
vn 0.000000 -1.000000 0.000000
vn 0.000000 -1.000000 0.000000
vn 0.000000 -1.000000 0.000000
vn 0.000000 -1.000000 0.000000
vn 0.000000 -1.000000 0.000000
vn 0.000000 -1.000000 0.000000
vn 0.000000 -1.000000 0.000000
vn 0.000000 -1.000000 0.000000
vn 0.000000 -1.000000 0.000000
vn 0.000000 -1.000000 0.000000
vn 0.000000 -1.000000 0.000000
vn 0.000000 -1.000000 0.000000
vn 0.000000 -1.000000 0.000000
vn 0.000000 -1.000000 0.000000
vn 0.000000 -1.000000 0.000000
vn 0.000000 -1.000000 0.000000
vn 0.000000 -1.000000 0.000000
vn 0.000000 -1.000000 0.000000
vn 0.000000 -1.000000 0.000000
vn 0.000000 -1.000000 0.000000
vn 0.000000 -1.000000 0.000000
vn 0.000000 -1.000000 0.000000
vn 0.000000 -1.000000 0.000000
vn 0.000000 -1.000000 0.000000
vn 0.000000 -1.000000 0.000000
vn 0.000000 -1.000000 0.000000
vn 0.000000 -1.000000 0.000000
vn 0.000000 -1.000000 0.000000
vn 0.000000 -1.000000 0.000000
vn 0.000000 -1.000000 0.000000
vn 0.000000 -1.000000 0.000000
vn 0.000000 -1.000000 0.000000
vn 0.000000 -1.000000 0.000000
vn 0.000000 -1.000000 0.000000
vn 0.000000 -1.000000 0.000000
vn 0.000000 -1.000000 0.000000
vn 0.000000 -1.000000 0.000000
vn 0.000000 -1.000000 0.000000
vn 0.000000 -1.000000 0.000000
vn 0.000000 -1.000000 0.000000
vn 0.000000 -1.000000 0.000000
vn 0.000000 -1.000000 0.000000
vn 0.000000 -1.000000 0.000000
vn 0.000000 -1.000000 0.000000
vn 0.000000 -1.000000 0.000000
vn 0.000000 -1.000000 0.000000
vn 0.000000 -1.000000 0.000000
vn 0.000000 -1.000000 0.000000
vn 0.000000 -1.000000 0.000000
vn 0.000000 -1.000000 0.000000
vn 0.000000 -1.000000 0.000000
vn 0.000000 -1.000000 0.000000
vn 0.000000 -1.000000 0.000000
vn 0.000000 -1.000000 0.000000
vn 0.000000 -1.000000 0.000000
vn 0.000000 -1.000000 0.000000
vn 0.000000 -1.000000 0.000000
vn 0.000000 -1.000000 0.000000
vn 0.000000 -1.000000 0.000000
vn 1.000000 -0.000000 0.000000
vn 1.000000 0.000000 0.000000
vn 1.000000 0.000000 0.000000
vn 1.000000 -0.000000 0.000000
vn 1.000000 -0.000000 0.000000
vn 1.000000 -0.000000 0.000000
vn 1.000000 -0.000000 0.000000
vn 1.000000 -0.000000 0.000000
vn 1.000000 0.000000 0.000000
vn 1.000000 0.000000 0.000000
vn 1.000000 0.000000 0.000000
vn 1.000000 0.000000 0.000000
vn -1.000000 0.000000 0.000000
vn -1.000000 0.000000 0.000000
vn -1.000000 0.000000 0.000000
vn -1.000000 0.000000 0.000000
vn -1.000000 0.000000 0.000000
vn -1.000000 0.000000 0.000000
vn -1.000000 0.000000 0.000000
vn -1.000000 0.000000 0.000000
vn -1.000000 0.000000 0.000000
vn -1.000000 0.000000 0.000000
vn -1.000000 0.000000 0.000000
vn -1.000000 0.000000 0.000000
vn 0.000000 0.000000 -1.000000
vn 0.000000 0.000000 -1.000000
vn 0.000000 0.000000 -1.000000
vn 0.000000 0.000000 -1.000000
vn -1.000000 0.000000 0.000000
vn -1.000000 0.000000 0.000000
vn -1.000000 0.000000 0.000000
vn -1.000000 0.000000 0.000000
vn 0.000000 0.000000 -1.000000
vn 0.000000 0.000000 -1.000000
vn 0.000000 0.000000 -1.000000
vn 0.000000 0.000000 -1.000000
vn 0.000000 0.000000 -1.000000
vn 0.000000 0.000000 -1.000000
vn 0.000000 0.000000 -1.000000
vn 0.000000 0.000000 -1.000000
vn 1.000000 0.000000 0.000000
vn 1.000000 0.000000 0.000000
vn 1.000000 0.000000 0.000000
vn 1.000000 0.000000 0.000000
vn -1.000000 0.000000 0.000000
vn -1.000000 0.000000 0.000000
vn -1.000000 0.000000 0.000000
vn -1.000000 0.000000 0.000000
vn 1.000000 0.000000 0.000000
vn 1.000000 0.000000 0.000000
vn 1.000000 0.000000 0.000000
vn 1.000000 0.000000 0.000000
vn 0.000000 0.000000 1.000000
vn 0.000000 0.000000 1.000000
vn 0.000000 0.000000 1.000000
vn 0.000000 0.000000 1.000000
vn -1.000000 0.000000 0.000000
vn -1.000000 0.000000 0.000000
vn -1.000000 0.000000 0.000000
vn -1.000000 0.000000 0.000000
vn 0.000000 0.000000 1.000000
vn 0.000000 0.000000 1.000000
vn 0.000000 0.000000 1.000000
vn 0.000000 0.000000 1.000000
vn 1.000000 0.000000 0.000000
vn 1.000000 0.000000 0.000000
vn 1.000000 0.000000 0.000000
vn 1.000000 0.000000 0.000000
vn 0.000000 0.000000 1.000000
vn 0.000000 0.000000 1.000000
vn 0.000000 0.000000 1.000000
vn 0.000000 0.000000 1.000000
vn 0.000000 -0.048319 -0.998832
vn 0.000000 -0.048319 -0.998832
vn 0.000000 -0.055284 -0.998471
vn 0.000000 -0.055284 -0.998471
vn 0.999197 -0.040073 0.000000
vn 0.999197 -0.040073 0.000000
vn 0.998948 -0.045859 0.000000
vn 0.998948 -0.045859 0.000000
vn 0.000000 -0.048319 0.998832
vn 0.000000 -0.048319 0.998832
vn 0.000000 -0.055284 0.998471
vn 0.000000 -0.055284 0.998471
vn -0.999197 -0.040073 0.000000
vn -0.999197 -0.040073 0.000000
vn -0.998948 -0.045859 0.000000
vn -0.998948 -0.045859 0.000000
vn 0.000000 -0.043826 -0.999039
vn 0.000000 -0.043826 -0.999039
vn 0.000000 -0.049301 -0.998784
vn 0.000000 -0.049301 -0.998784
vn 0.999339 -0.036345 0.000000
vn 0.999339 -0.036345 0.000000
vn 0.999164 -0.040892 0.000000
vn 0.999164 -0.040892 0.000000
vn 0.000000 -0.043826 0.999039
vn 0.000000 -0.043826 0.999039
vn 0.000000 -0.049301 0.998784
vn 0.000000 -0.049301 0.998784
vn -0.999339 -0.036345 0.000000
vn -0.999339 -0.036345 0.000000
vn -0.999164 -0.040892 0.000000
vn -0.999164 -0.040892 0.000000
vn 0.000000 -0.064644 -0.997908
vn 0.000000 -0.064644 -0.997908
vn 0.000000 -0.070779 -0.997492
vn 0.000000 -0.070779 -0.997492
vn 0.998561 -0.053629 0.000000
vn 0.998561 -0.053629 0.000000
vn 0.998274 -0.058729 0.000000
vn 0.998274 -0.058729 0.000000
vn 0.000000 -0.064644 0.997908
vn 0.000000 -0.064644 0.997908
vn 0.000000 -0.070779 0.997492
vn 0.000000 -0.070779 0.997492
vn -0.998561 -0.053628 0.000000
vn -0.998561 -0.053628 0.000000
vn -0.998274 -0.058729 0.000000
vn -0.998274 -0.058729 0.000000
vn 0.000000 -0.056871 -0.998381
vn 0.000000 -0.056871 -0.998381
vn 0.000000 -0.067310 -0.997732
vn 0.000000 -0.067310 -0.997732
vn 0.998887 -0.047171 0.000000
vn 0.998887 -0.047171 0.000000
vn 0.998439 -0.055848 0.000000
vn 0.998439 -0.055848 0.000000
vn 0.000000 -0.056871 0.998381
vn 0.000000 -0.056871 0.998381
vn 0.000000 -0.067310 0.997732
vn 0.000000 -0.067310 0.997732
vn -0.998887 -0.047171 0.000000
vn -0.998887 -0.047171 0.000000
vn -0.998439 -0.055848 0.000000
vn -0.998439 -0.055848 0.000000
vn 0.000000 0.000000 -1.000000
vn 0.000000 0.000000 -1.000000
vn 0.000000 -0.020606 -0.999788
vn 0.000000 -0.020606 -0.999788
vn 1.000000 0.000000 0.000000
vn 1.000000 0.000000 0.000000
vn 0.999854 -0.017081 0.000000
vn 0.999854 -0.017081 0.000000
vn 0.000000 0.000000 1.000000
vn 0.000000 0.000000 1.000000
vn 0.000000 -0.020606 0.999788
vn 0.000000 -0.020606 0.999788
vn -1.000000 0.000000 0.000000
vn -1.000000 0.000000 0.000000
vn -0.999854 -0.017081 0.000000
vn -0.999854 -0.017081 0.000000
vn 0.000000 0.000000 -1.000000
vn 0.000000 0.000000 -1.000000
vn 0.000000 -0.022553 -0.999746
vn 0.000000 -0.022553 -0.999746
vn 1.000000 0.000000 0.000000
vn 1.000000 0.000000 0.000000
vn 0.999825 -0.018694 0.000000
vn 0.999825 -0.018694 0.000000
vn 0.000000 0.000000 1.000000
vn 0.000000 0.000000 1.000000
vn 0.000000 -0.022553 0.999746
vn 0.000000 -0.022553 0.999746
vn -1.000000 0.000000 0.000000
vn -1.000000 0.000000 0.000000
vn -0.999825 -0.018694 0.000000
vn -0.999825 -0.018694 0.000000
vn 0.000000 0.000000 -1.000000
vn 0.000000 0.000000 -1.000000
vn 0.000000 -0.031948 -0.999490
vn 0.000000 -0.031948 -0.999490
vn 1.000000 0.000000 0.000000
vn 1.000000 0.000000 0.000000
vn 0.999649 -0.026481 0.000000
vn 0.999649 -0.026481 0.000000
vn 0.000000 0.000000 1.000000
vn 0.000000 0.000000 1.000000
vn 0.000000 -0.031948 0.999490
vn 0.000000 -0.031948 0.999490
vn -1.000000 0.000000 0.000000
vn -1.000000 0.000000 0.000000
vn -0.999649 -0.026480 0.000000
vn -0.999649 -0.026480 0.000000
vn 0.000000 0.000000 -1.000000
vn 0.000000 0.000000 -1.000000
vn 0.000000 -0.026194 -0.999657
vn 0.000000 -0.026194 -0.999657
vn 1.000000 0.000000 0.000000
vn 1.000000 0.000000 0.000000
vn 0.999764 -0.021712 0.000000
vn 0.999764 -0.021712 0.000000
vn 0.000000 0.000000 1.000000
vn 0.000000 0.000000 1.000000
vn 0.000000 -0.026194 0.999657
vn 0.000000 -0.026194 0.999657
vn -1.000000 0.000000 0.000000
vn -1.000000 0.000000 0.000000
vn -0.999764 -0.021712 0.000000
vn -0.999764 -0.021712 0.000000
s 1
g pCube1
usemtl initialShadingGroup
f 1/1/1 2/2/2 8/8/3 7/7/4
f 2/2/2 3/3/5 9/9/6 8/8/3
f 3/3/5 4/4/7 10/10/8 9/9/6
f 4/4/7 5/5/9 11/11/10 10/10/8
f 5/5/9 6/6/11 12/12/12 11/11/10
s 2
f 7/7/13 8/8/14 14/14/15 13/13/16
f 8/8/14 9/9/17 15/15/18 14/14/15
f 9/9/17 10/10/19 16/16/20 15/15/18
f 10/10/19 11/11/21 17/17/22 16/16/20
f 11/11/21 12/12/23 18/18/24 17/17/22
f 13/13/16 14/14/15 20/20/25 19/19/26
f 14/14/15 15/15/18 21/21/27 20/20/25
f 15/15/18 16/16/20 22/22/28 21/21/27
f 16/16/20 17/17/22 23/23/29 22/22/28
f 17/17/22 18/18/24 24/24/30 23/23/29
f 19/19/26 20/20/25 26/26/31 25/25/32
f 20/20/25 21/21/27 27/27/33 26/26/31
f 21/21/27 22/22/28 28/28/34 27/27/33
f 22/22/28 23/23/29 29/29/35 28/28/34
f 23/23/29 24/24/30 30/30/36 29/29/35
f 25/25/32 26/26/31 32/32/37 31/31/38
f 26/26/31 27/27/33 33/33/39 32/32/37
f 27/27/33 28/28/34 34/34/40 33/33/39
f 28/28/34 29/29/35 35/35/41 34/34/40
f 29/29/35 30/30/36 36/36/42 35/35/41
f 31/31/38 32/32/37 38/38/43 37/37/44
f 32/32/37 33/33/39 39/39/45 38/38/43
f 33/33/39 34/34/40 40/40/46 39/39/45
f 34/34/40 35/35/41 41/41/47 40/40/46
f 35/35/41 36/36/42 42/42/48 41/41/47
s 3
f 37/37/49 38/38/50 44/44/51 43/43/52
f 38/38/50 39/39/53 45/45/54 44/44/51
f 39/39/53 40/40/55 46/46/56 45/45/54
f 40/40/55 41/41/57 47/47/58 46/46/56
f 41/41/57 42/42/59 48/48/60 47/47/58
s 4
f 43/43/61 44/44/62 50/50/63 49/49/64
f 44/44/62 45/45/65 51/51/66 50/50/63
f 45/45/65 46/46/67 52/52/68 51/51/66
f 46/46/67 47/47/69 53/53/70 52/52/68
f 47/47/69 48/48/71 54/54/72 53/53/70
f 49/49/64 50/50/63 56/56/73 55/55/74
s off
f 85/111/75 86/112/76 87/113/77 88/114/78
s 5
f 70/100/79 73/102/80 74/58/81 71/57/82
s off
f 89/115/83 90/116/84 91/117/85 92/118/86
s 4
f 53/53/70 54/54/72 58/60/87 57/59/88
f 55/55/74 56/56/73 60/62/89 59/61/90
s 5
f 72/101/91 71/57/82 77/63/92 78/105/93
f 71/57/82 74/58/81 79/64/94 77/63/92
f 74/58/81 76/104/95 80/106/96 79/64/94
s 4
f 57/59/88 58/60/87 62/66/97 61/65/98
f 59/61/90 60/62/89 64/68/99 63/67/100
s off
f 93/119/101 94/120/102 95/121/103 96/122/104
s 5
f 77/63/92 79/64/94 83/109/105 81/107/106
s off
f 97/123/107 98/124/108 99/125/109 100/126/110
s 4
f 61/65/98 62/66/97 68/72/111 67/71/112
f 63/67/100 64/68/99 2/74/113 1/73/114
f 64/68/99 65/69/115 3/75/116 2/74/113
f 65/69/115 66/70/117 4/76/118 3/75/116
f 66/70/117 67/71/112 5/77/119 4/76/118
f 67/71/112 68/72/111 6/78/120 5/77/119
s 6
f 54/80/121 48/79/122 42/84/123 36/85/124
f 58/81/125 54/80/121 36/85/124 30/86/126
f 62/82/127 58/81/125 30/86/126 24/87/128
f 68/83/129 62/82/127 24/87/128 18/88/130
f 6/6/131 68/83/129 18/88/130 12/12/132
s 7
f 43/89/133 49/90/134 31/95/135 37/94/136
f 49/90/134 55/91/137 25/96/138 31/95/135
f 55/91/137 59/92/139 19/97/140 25/96/138
f 59/92/139 63/93/141 13/98/142 19/97/140
f 63/93/141 1/1/143 7/7/144 13/98/142
s off
f 50/50/145 51/51/146 70/100/147 69/99/148
f 56/56/149 50/50/150 69/99/151 72/101/152
f 51/51/153 52/52/154 73/102/155 70/100/156
f 52/52/157 53/53/158 75/103/159 73/102/160
f 53/53/161 57/59/162 76/104/163 75/103/164
f 60/62/165 56/56/166 72/101/167 78/105/168
f 57/59/169 61/65/170 80/106/171 76/104/172
f 65/69/173 64/68/174 82/108/175 81/107/176
f 64/68/177 60/62/178 78/105/179 82/108/180
f 66/70/181 65/69/182 81/107/183 83/109/184
f 61/65/185 67/71/186 84/110/187 80/106/188
f 67/71/189 66/70/190 83/109/191 84/110/192
s 8
f 113/139/193 114/140/194 86/112/195 85/111/196
s 9
f 114/140/197 115/141/198 87/113/199 86/112/200
s 10
f 115/141/201 116/142/202 88/114/203 87/113/204
s 11
f 116/142/205 113/139/206 85/111/207 88/114/208
s 12
f 105/131/209 106/132/210 90/116/211 89/115/212
s 13
f 106/132/213 107/133/214 91/117/215 90/116/216
s 14
f 107/133/217 108/134/218 92/118/219 91/117/220
s 15
f 108/134/221 105/131/222 89/115/223 92/118/224
s 16
f 121/147/225 122/148/226 94/120/227 93/119/228
s 17
f 122/148/229 123/149/230 95/121/231 94/120/232
s 18
f 123/149/233 124/150/234 96/122/235 95/121/236
s 19
f 124/150/237 121/147/238 93/119/239 96/122/240
s 20
f 129/155/241 130/156/242 98/124/243 97/123/244
s 21
f 130/156/245 131/157/246 99/125/247 98/124/248
s 22
f 131/157/249 132/158/250 100/126/251 99/125/252
s 23
f 132/158/253 129/155/254 97/123/255 100/126/256
s 12
f 73/102/257 75/103/258 102/128/259 101/127/260
s 13
f 75/103/261 76/104/262 103/129/263 102/128/264
s 14
f 76/104/265 74/58/266 104/130/267 103/129/268
s 15
f 74/58/269 73/102/270 101/127/271 104/130/272
s 12
f 101/127/260 102/128/259 106/132/210 105/131/209
s 13
f 102/128/264 103/129/263 107/133/214 106/132/213
s 14
f 103/129/268 104/130/267 108/134/218 107/133/217
s 15
f 104/130/272 101/127/271 105/131/222 108/134/221
s 8
f 69/99/273 70/100/274 110/136/275 109/135/276
s 9
f 70/100/277 71/57/278 111/137/279 110/136/280
s 10
f 71/57/281 72/101/282 112/138/283 111/137/284
s 11
f 72/101/285 69/99/286 109/135/287 112/138/288
s 8
f 109/135/276 110/136/275 114/140/194 113/139/193
s 9
f 110/136/280 111/137/279 115/141/198 114/140/197
s 10
f 111/137/284 112/138/283 116/142/202 115/141/201
s 11
f 112/138/288 109/135/287 113/139/206 116/142/205
s 16
f 78/105/289 77/63/290 118/144/291 117/143/292
s 17
f 77/63/293 81/107/294 119/145/295 118/144/296
s 18
f 81/107/297 82/108/298 120/146/299 119/145/300
s 19
f 82/108/301 78/105/302 117/143/303 120/146/304
s 16
f 117/143/292 118/144/291 122/148/226 121/147/225
s 17
f 118/144/296 119/145/295 123/149/230 122/148/229
s 18
f 119/145/300 120/146/299 124/150/234 123/149/233
s 19
f 120/146/304 117/143/303 121/147/238 124/150/237
s 20
f 79/64/305 80/106/306 126/152/307 125/151/308
s 21
f 80/106/309 84/110/310 127/153/311 126/152/312
s 22
f 84/110/313 83/109/314 128/154/315 127/153/316
s 23
f 83/109/317 79/64/318 125/151/319 128/154/320
s 20
f 125/151/308 126/152/307 130/156/242 129/155/241
s 21
f 126/152/312 127/153/311 131/157/246 130/156/245
s 22
f 127/153/316 128/154/315 132/158/250 131/157/249
s 23
f 128/154/320 125/151/319 129/155/254 132/158/253
