# This file uses centimeters as units for non-parametric coordinates.

mtllib RoomBox.mtl
g default
v -113.667398 -0.592169 113.667398
v 113.667398 -0.592169 113.667398
v -113.667398 204.988516 113.667398
v 113.667398 204.988516 113.667398
v -113.667398 204.988516 -113.667398
v 113.667398 204.988516 -113.667398
v -113.667398 -0.592169 -113.667398
v 113.667398 -0.592169 -113.667398
v -113.667398 226.742626 113.667398
v 113.667398 226.742626 113.667398
v -113.667398 226.742626 -113.667398
v 113.667398 226.742626 -113.667398
vt 0.375000 0.000000
vt 0.625000 0.000000
vt 0.375000 0.250000
vt 0.625000 0.250000
vt 0.375000 0.500000
vt 0.625000 0.500000
vt 0.375000 0.750000
vt 0.625000 0.750000
vt 0.375000 1.000000
vt 0.625000 1.000000
vt 0.875000 0.000000
vt 0.125000 0.000000
vt 0.375000 0.250000
vt 0.625000 0.250000
vt 0.125000 0.250000
vt 0.375000 0.500000
vt 0.625000 0.500000
vt 0.875000 0.250000
vn 0.000000 0.000000 -1.000000
vn 0.000000 0.000000 -1.000000
vn 0.000000 0.000000 -1.000000
vn 0.000000 0.000000 -1.000000
vn 0.000000 -1.000000 0.000000
vn 0.000000 -1.000000 0.000000
vn 0.000000 -1.000000 0.000000
vn 0.000000 -1.000000 0.000000
vn 0.000000 0.000000 1.000000
vn 0.000000 0.000000 1.000000
vn 0.000000 0.000000 1.000000
vn 0.000000 0.000000 1.000000
vn 0.000000 1.000000 0.000000
vn 0.000000 1.000000 0.000000
vn 0.000000 1.000000 0.000000
vn 0.000000 1.000000 0.000000
vn -1.000000 0.000000 0.000000
vn -1.000000 0.000000 0.000000
vn -1.000000 0.000000 0.000000
vn -1.000000 0.000000 0.000000
vn 1.000000 0.000000 0.000000
vn 1.000000 0.000000 0.000000
vn 1.000000 0.000000 0.000000
vn 1.000000 0.000000 0.000000
s off
g pCube1
usemtl initialShadingGroup
f 1/1/1 9/13/2 10/14/3 2/2/4
f 3/3/5 5/5/6 6/6/7 4/4/8
f 11/16/9 7/7/10 8/8/11 12/17/12
f 7/7/13 1/9/14 2/10/15 8/8/16
f 2/2/17 10/14/18 12/18/19 8/11/20
f 7/12/21 11/15/22 9/13/23 1/1/24
