#File written by LIBUNFOLD3D. Compilation :Jun 29 2015,14:16:05
mtllib Table.mtl
#begin vertices
v -8.199611 7.238583 4.393238
v -7.835375 7.238583 4.393238
v -6.584509 7.238583 4.393238
v 6.584508 7.238583 4.393238
v 7.835375 7.238583 4.393238
v 8.199611 7.238583 4.393238
v -8.199611 7.628372 4.393238
v -7.835375 7.628372 4.393238
v -6.584509 7.628372 4.393238
v 6.584508 7.628372 4.393238
v 7.835375 7.628372 4.393238
v 8.199611 7.628372 4.393238
v -8.199611 7.628372 4.180747
v -7.835375 7.628372 4.180747
v -6.584509 7.628372 4.180747
v 6.584508 7.628372 4.180747
v 7.835375 7.628372 4.180747
v 8.199611 7.628372 4.180747
v -8.199611 7.628372 2.672079
v -7.835375 7.628372 2.672079
v -6.584509 7.628372 2.672079
v 6.584508 7.628372 2.672079
v 7.835375 7.628372 2.672079
v 8.199611 7.628372 2.672079
v -8.199611 7.628372 -2.672078
v -7.835375 7.628372 -2.672078
v -6.584509 7.628372 -2.672078
v 6.584508 7.628372 -2.672078
v 7.835375 7.628372 -2.672078
v 8.199611 7.628372 -2.672078
v -8.199611 7.628372 -4.180747
v -7.835375 7.628372 -4.180747
v -6.584509 7.628372 -4.180747
v 6.584508 7.628372 -4.180747
v 7.835375 7.628372 -4.180747
v 8.199611 7.628372 -4.180747
v -8.199611 7.628372 -4.393238
v -7.835375 7.628372 -4.393238
v -6.584509 7.628372 -4.393238
v 6.584508 7.628372 -4.393238
v 7.835375 7.628372 -4.393238
v 8.199611 7.628372 -4.393238
v -8.199611 7.238583 -4.393238
v -7.835375 7.238583 -4.393238
v -6.584509 7.238583 -4.393238
v 6.584508 7.238583 -4.393238
v 7.835375 7.238583 -4.393238
v 8.199611 7.238583 -4.393238
v -8.199611 7.238583 -4.180747
v -7.835375 7.238583 -4.180747
v -6.584509 7.238583 -4.180747
v 6.584508 7.238583 -4.180747
v 7.835375 7.238583 -4.180747
v 8.199611 7.238583 -4.180747
v -8.199611 7.238583 -2.672079
v -7.835375 7.238583 -2.672079
v 7.835375 7.238583 -2.672079
v 8.199611 7.238583 -2.672079
v -8.199611 7.238583 2.672078
v -7.835375 7.238583 2.672078
v 7.835375 7.238583 2.672078
v 8.199611 7.238583 2.672078
v -8.199611 7.238583 4.180747
v -7.835375 7.238583 4.180747
v -6.584509 7.238583 4.180747
v 6.584508 7.238583 4.180747
v 7.835375 7.238583 4.180747
v 8.199611 7.238583 4.180747
v -7.835375 6.328714 -4.180747
v -6.584509 6.328714 -4.180747
v -6.584509 6.328714 -2.672079
v -7.835375 6.328714 -2.672079
v 6.584508 6.328714 -4.180747
v 6.584508 6.328714 -2.672079
v 7.835375 6.328714 -4.180747
v 7.835375 6.328714 -2.672079
v -6.584509 6.328714 2.672078
v -7.835375 6.328714 2.672078
v 6.584508 6.328714 2.672078
v 7.835375 6.328714 2.672078
v -6.584509 6.328714 4.180747
v -7.835375 6.328714 4.180747
v 6.584508 6.328714 4.180747
v 7.835375 6.328714 4.180747
v -7.666038 0.053112 -3.97651
v -6.753846 0.053112 -3.97651
v -6.753846 0.053112 -2.876316
v -7.666038 0.053112 -2.876316
v 6.737775 0.053112 -3.995892
v 7.682108 0.053112 -3.995892
v 7.682108 0.053112 -2.856934
v 6.737775 0.053112 -2.856934
v -7.60894 0.053112 2.945181
v -6.810944 0.053112 2.945181
v -6.810944 0.053112 3.907643
v -7.60894 0.053112 3.907643
v 6.784777 0.053112 2.913622
v 7.635106 0.053112 2.913622
v 7.635106 0.053112 3.939203
v 6.784777 0.053112 3.939203
v 6.584507 4.236849 -4.180747
v 7.835375 4.236849 -4.180747
v 7.835375 4.236849 -2.672079
v 6.584507 4.236849 -2.672079
v 6.662892 1.882812 -4.086208
v 7.75699 1.882812 -4.086208
v 7.75699 1.882812 -2.766618
v 6.662892 1.882812 -2.766618
v -7.835375 4.236849 -4.180747
v -6.584509 4.236849 -4.180747
v -6.584509 4.236849 -2.672079
v -7.835375 4.236849 -2.672079
v -7.748772 1.855323 -4.076295
v -6.671112 1.855323 -4.076295
v -6.671112 1.855323 -2.77653
v -7.748772 1.855323 -2.77653
v -7.835375 4.236849 2.672078
v -6.584509 4.236849 2.672078
v -6.584509 4.236849 4.180747
v -7.835375 4.236849 4.180747
v -7.706684 1.714553 2.827291
v -6.713199 1.714553 2.827291
v -6.713199 1.714553 4.025533
v -7.706684 1.714553 4.025533
v 6.584507 4.236849 2.672078
v 7.835375 4.236849 2.672078
v 7.835375 4.236849 4.180747
v 6.584507 4.236849 4.180747
v 6.686929 1.802413 2.795609
v 7.732953 1.802413 2.795609
v 7.732953 1.802413 4.057216
v 6.686929 1.802413 4.057216
#end vertices

#begin 272 textures vertices 
vt 0.2339462 0.9765497 0
vt 0.243988 0.9765497 0
vt 0.2784738 0.9765497 0
vt 0.641538 0.9765497 0
vt 0.6760239 0.9765497 0
vt 0.6891134 0.9831838 0
vt 0.9313528 0.981226 0
vt 0.243988 0.987296 0
vt 0.2784738 0.987296 0
vt 0.641538 0.987296 0
vt 0.6760239 0.987296 0
vt 0 0.2398276 0
vt 0.4484428 0.2976673 0
vt 0.438501 0.2962539 0
vt 0.4043585 0.2913997 0
vt 0.04490898 0.2402953 0
vt 0.01076646 0.2354412 0
vt 0.0008246032 0.2340277 0
vt 0.4542974 0.2564881 0
vt 0.4443556 0.2550746 0
vt 0.4102131 0.2502205 0
vt 0.0507636 0.1991161 0
vt 0.01662107 0.1942619 0
vt 0.006679216 0.1928485 0
vt 0.4750362 0.1106189 0
vt 0.4650944 0.1092054 0
vt 0.4309519 0.1043512 0
vt 0.0715024 0.05324686 0
vt 0.03735987 0.04839269 0
vt 0.02741802 0.04697922 0
vt 0.4808909 0.0694396 0
vt 0.470949 0.06802613 0
vt 0.4368065 0.06317196 0
vt 0.07735701 0.01206761 0
vt 0.04321449 0.007213433 0
vt 0.03327263 0.005799961 0
vt 0.4817155 0.06363964 0
vt 0.4717736 0.06222617 0
vt 0.4376311 0.057372 0
vt 0.07818162 0.006267649 0
vt 0.04403909 0.001413472 0
vt 0.03409724 0 0
vt 0.9012498 0.3270621 0
vt 0.4420777 0.9892537 0
vt 0.4075919 0.9892537 0
vt 0.0445277 0.9892537 0
vt 0.01004183 0.9892537 0
vt 4.652473e-015 0.9892537 0
vt 0.9024112 0.3213201 0
vt 0.8925687 0.3193294 0
vt 0.8587673 0.3124927 0
vt 0.5029091 0.2405169 0
vt 0.4691077 0.2336803 0
vt 0.4592652 0.2316895 0
vt 0.9106569 0.2805523 0
vt 0.9008144 0.2785615 0
vt 0.4773534 0.1929125 0
vt 0.4675108 0.1909217 0
vt 0.9398656 0.1361404 0
vt 0.9300231 0.1341497 0
vt 0.5065621 0.04850059 0
vt 0.4967195 0.04650985 0
vt 0.9481113 0.0953726 0
vt 0.9382688 0.09338185 0
vt 0.9044674 0.0865452 0
vt 0.5486092 0.01456942 0
vt 0.5148078 0.007732759 0
vt 0.5049652 0.005742013 0
vt 0.4320359 0.897342 0
vt 0.396021 0.5296671 0
vt 0.3973477 0.4880949 0
vt 0.7307067 0.9434373 0
vt 0.03314161 0.5180863 0
vt 0.4336324 0.4803602 0
vt 0.8112918 0.4803602 0
vt 0 0.4754141 0
vt 0.4020474 0.3408337 0
vt 0.4365157 0.3419337 0
vt 0.03916794 0.329253 0
vt 0.04159336 0.9514268 0
vt 0.03448584 0.9243844 0
vt 0.8864202 0.6754813 0
vt 0.04049465 0.2876808 0
vt 0.1665524 0.8953842 0
vt 0.5946961 0.6842692 0
vt 0.5695474 0.6842692 0
vt 0.5695474 0.6539373 0
vt 0.5946961 0.6539373 0
vt 0.6381624 0.4500998 0
vt 0.6381624 0.4761347 0
vt 0.6067618 0.4761347 0
vt 0.6067618 0.4500998 0
vt 0.7620117 0.8319433 0
vt 0.7443723 0.8187954 0
vt 0.76023 0.7975205 0
vt 0.7778694 0.8106684 0
vt 0.2014865 0.6987906 0
vt 0.2014865 0.7222338 0
vt 0.1732116 0.7222338 0
vt 0.1732116 0.6987906 0
vt 0.75362 0.4458743 0
vt 0.75362 0.4803602 0
vt 0.6016655 0.5915567 0
vt 0.6016654 0.3346778 0
vt 0.6886679 0.4480353 0
vt 0.6886679 0.4781991 0
vt 0.6042719 0.5266209 0
vt 0.5562564 0.4480353 0
vt 0.5993646 0.7997522 0
vt 0.5648788 0.7997522 0
vt 0.4541078 0.6483066 0
vt 0.5993646 0.5384542 0
vt 0.596977 0.7340315 0
vt 0.5672664 0.7340315 0
vt 0.5198088 0.6511862 0
vt 0.596977 0.604175 0
vt 0.6979375 0.928352 0
vt 0.6702875 0.9077425 0
vt 0.6721136 0.7224501 0
vt 0.8519542 0.7217213 0
vt 0.7367293 0.8703717 0
vt 0.7147686 0.8540028 0
vt 0.7253833 0.767493 0
vt 0.8074731 0.7754609 0
vt 0.3170263 0.6932693 0
vt 0.3170263 0.7277552 0
vt 0.1665524 0.8377124 0
vt 0.05767182 0.6932693 0
vt 0.2498236 0.696093 0
vt 0.2498236 0.7249314 0
vt 0.1699581 0.7705367 0
vt 0.1248745 0.696093 0
vt 0.39755 0.9224267 0
vt 0.4320359 0.9224267 0
vt 0.03448587 0.9224267 0
vt 0.8780428 0.968522 0
vt 0.2305228 0.9765115 0
vt 0.04159336 0.9765115 0
vt 0.7307067 0.968522 0
vt 0.9196362 0.968522 0
vt 0.1889295 0.9765115 0
vt 0.4320359 0.9494691 0
vt 0.03448584 0.9494691 0
vt 0.39755 0.9494691 0
vt 0.8914073 0.3250714 0
vt 0.8576059 0.3182347 0
vt 0.5017477 0.2462589 0
vt 0.4679463 0.2394223 0
vt 0.4581038 0.2374315 0
vt 0.9254945 0.9831838 0
vt 0.736565 0.9831838 0
vt 0.8839012 0.9831838 0
vt 0.6949717 0.9831838 0
vt 0.9394302 0.08763984 0
vt 0.9056288 0.08080318 0
vt 0.5497705 0.008827408 0
vt 0.5159691 0.001990746 0
vt 0.5061266 0 0
vt 0.9492727 0.08963059 0
vt 0.6949717 0.9704797 0
vt 0.6891134 0.9704797 0
vt 0.8839011 0.9704797 0
vt 0.736565 0.9704797 0
vt 0.9254945 0.9704797 0
vt 0.9254945 0.981226 0
vt 0.6949717 0.981226 0
vt 0.8839012 0.981226 0
vt 0.736565 0.981226 0
vt 0.4420777 1 0
vt 0.4521195 1 0
vt 0.4075919 1 0
vt 0.0445277 1 0
vt 0.01004183 1 0
vt 0.9254945 0.9939301 0
vt 0.6949717 0.9939301 0
vt 0.9313528 0.9939301 0
vt 0.736565 0.9939301 0
vt 0.8839011 0.9939301 0
vt 0.4376764 0.3020538 0
vt 0.4476182 0.3034673 0
vt 0.4035339 0.2971996 0
vt 0.04408438 0.2460953 0
vt 0.009941854 0.2412411 0
vt 0.6860657 0.987296 0
vt 0.6860657 0.9765497 0
vt 0.6891134 0.9939301 0
vt 1.958936e-015 0.9765115 0
vt 0.4320359 0.9243844 0
vt 0.1248745 0.7249314 0
vt 0.05767182 0.7277552 0
vt 0.8166009 0.835484 0
vt 0 0.9494691 0
vt 0.9196362 0.9434373 0
vt 0.8749853 0.873665 0
vt 0.7678075 0.6898999 0
vt 0.7101357 0.6898999 0
vt 0.6891134 0.968522 0
vt 0.6444346 0.6870202 0
vt 0 0.9224267 0
vt 0.2305228 0.9514268 0
vt 0.6406524 0.5266209 0
vt 0.6432588 0.5915567 0
vt 0.6406524 0.3996135 0
vt 0.6432588 0.3346778 0
vt 0.03448587 0.897342 0
vt 0.5198088 0.6870202 0
vt 0.5648788 0.8574241 0
vt 0.4541078 0.6898999 0
vt 0.6444346 0.6511862 0
vt 0.5993646 0.4807824 0
vt 0.7101357 0.6483066 0
vt 0.8501281 0.9070136 0
vt 0.7968584 0.8619708 0
vt 0.8963681 0.9414796 0
vt 0.7855125 0.7590921 0
vt 0.8243043 0.7011118 0
vt 0.6258736 0.6879841 0
vt 0.1699581 0.6504877 0
vt 0 0.6932693 0
vt 0.1665524 0.583312 0
vt 0.20474 0.7705367 0
vt 0.3746981 0.7277552 0
vt 0.2081457 0.8377124 0
vt 0.5562564 0.4781991 0
vt 0.6016655 0.6492285 0
vt 0.4913043 0.4803602 0
vt 0.4033741 0.2992616 0
vt 0.6010165 0.7213327 0
vt 0.6634715 0.974592 0
vt 0.1665524 0.5256402 0
vt 0.00469962 0.328153 0
vt 0.3746981 0.6932693 0
vt 0.6432588 0.277006 0
vt 0.6016654 0.277006 0
vt 0.396436 0.6898999 0
vt 0.431816 0.4891949 0
vt 0.5648788 0.4807824 0
vt 0.03446832 0.4765141 0
vt 0.7056408 0.7939797 0
vt 0.6472565 0.7557987 0
vt 0.6358215 0.9539824 0
vt 0.20474 0.6504877 0
vt 0.2081457 0.583312 0
vt 0.2081457 0.5256402 0
vt 0.6042719 0.3996135 0
vt 0.4913043 0.4458743 0
vt 0.4336324 0.4458743 0
vt 0.5672664 0.604175 0
vt 0.5648788 0.5384542 0
vt 0.396436 0.6483066 0
vt 2.938404e-016 0.9243844 0
vt 0.8587703 0.6548718 0
vt 0.8780428 0.9434373 0
vt 0.9212252 0.908131 0
vt 0.6891134 0.9434373 0
vt 0.7678075 0.6483066 0
vt 0.39755 0.897342 0
vt 0.5993646 0.8574241 0
vt 1.273308e-015 0.897342 0
vt 0.8112918 0.4458743 0
vt 0.1889295 0.9514268 0
vt 0.6432588 0.6492285 0
vt 0 0.9514268 0
vt 0.2081457 0.8953842 0
vt 0.39755 0.9243844 0
vt 4.002268e-010 0.7277552 0
vt 0.9313528 0.9831838 0
vt 0 1 0
vt 0.2339462 0.987296 0
vt 0.9313528 0.9704797 0
vt 0.4521195 0.9892537 0
vt 0.6891134 0.981226 0
#end 272 textures vertices 

#begin 320 normals 
vn 0 0 1
vn 0 0 1
vn 0 0 1
vn 0 0 1
vn 0 0 1
vn 0 0 1
vn 0 0 1
vn 0 0 1
vn 0 0 1
vn 0 0 1
vn 0 0 1
vn 0 0 1
vn 0 1 0
vn 0 1 0
vn 0 1 0
vn 0 1 0
vn 0 1 0
vn 0 1 0
vn 0 1 0
vn 0 1 0
vn 0 1 0
vn 0 1 0
vn 0 1 0
vn 0 1 0
vn 0 1 0
vn 0 1 0
vn 0 1 0
vn 0 1 0
vn 0 1 0
vn 0 1 0
vn 0 1 0
vn 0 1 0
vn 0 1 0
vn 0 1 0
vn 0 1 0
vn 0 1 0
vn 0 1 0
vn 0 1 0
vn 0 1 0
vn 0 1 0
vn 0 1 0
vn 0 1 0
vn 0 1 0
vn 0 1 0
vn 0 1 0
vn 0 1 0
vn 0 1 0
vn 0 1 0
vn 0 0 -1
vn 0 0 -1
vn 0 0 -1
vn 0 0 -1
vn 0 0 -1
vn 0 0 -1
vn 0 0 -1
vn 0 0 -1
vn 0 0 -1
vn 0 0 -1
vn 0 0 -1
vn 0 0 -1
vn 0 -1 0
vn 0 -1 0
vn 0 -1 0
vn 0 -1 0
vn 0 -1 0
vn 0 -1 0
vn 0 -1 0
vn 0 -1 0
vn 0 -1 0
vn 0 -1 0
vn 0 -1 0
vn 0 -1 0
vn 0 -1 0
vn 0 -1 0
vn 0 -1 0
vn 0 -1 0
vn 0 -1 0
vn 0 -1 0
vn 0 -1 0
vn 0 -1 0
vn 0 -1 0
vn 0 -1 0
vn 0 -1 0
vn 0 -1 0
vn 0 -1 0
vn 0 -1 0
vn 0 -1 0
vn 0 -1 0
vn 0 -1 0
vn 0 -1 0
vn 0 -1 0
vn 0 -1 0
vn 0 -1 0
vn 0 -1 0
vn 0 -1 0
vn 0 -1 0
vn 0 -1 0
vn 0 -1 0
vn 0 -1 0
vn 0 -1 0
vn 0 -1 0
vn 0 -1 0
vn 0 -1 0
vn 0 -1 0
vn 0 -1 0
vn 0 -1 0
vn 0 -1 0
vn 0 -1 0
vn 0 -1 0
vn 0 -1 0
vn 0 -1 0
vn 0 -1 0
vn 0 -1 0
vn 0 -1 0
vn 0 -1 0
vn 0 -1 0
vn 0 -1 0
vn 0 -1 0
vn 0 -1 0
vn 0 -1 0
vn 1 -0 0
vn 1 0 0
vn 1 0 0
vn 1 -0 0
vn 1 -0 0
vn 1 -0 0
vn 1 -0 0
vn 1 -0 0
vn 1 0 0
vn 1 0 0
vn 1 0 0
vn 1 0 0
vn -1 0 0
vn -1 0 0
vn -1 0 0
vn -1 0 0
vn -1 0 0
vn -1 0 0
vn -1 0 0
vn -1 0 0
vn -1 0 0
vn -1 0 0
vn -1 0 0
vn -1 0 0
vn 0 0 -1
vn 0 0 -1
vn 0 0 -1
vn 0 0 -1
vn -1 0 0
vn -1 0 0
vn -1 0 0
vn -1 0 0
vn 0 0 -1
vn 0 0 -1
vn 0 0 -1
vn 0 0 -1
vn 0 0 -1
vn 0 0 -1
vn 0 0 -1
vn 0 0 -1
vn 1 0 0
vn 1 0 0
vn 1 0 0
vn 1 0 0
vn -1 0 0
vn -1 0 0
vn -1 0 0
vn -1 0 0
vn 1 0 0
vn 1 0 0
vn 1 0 0
vn 1 0 0
vn 0 0 1
vn 0 0 1
vn 0 0 1
vn 0 0 1
vn -1 0 0
vn -1 0 0
vn -1 0 0
vn -1 0 0
vn 0 0 1
vn 0 0 1
vn 0 0 1
vn 0 0 1
vn 1 0 0
vn 1 0 0
vn 1 0 0
vn 1 0 0
vn 0 0 1
vn 0 0 1
vn 0 0 1
vn 0 0 1
vn 0 -0.048319 -0.998832
vn 0 -0.048319 -0.998832
vn 0 -0.055284 -0.998471
vn 0 -0.055284 -0.998471
vn 0.999197 -0.040073 0
vn 0.999197 -0.040073 0
vn 0.998948 -0.045859 0
vn 0.998948 -0.045859 0
vn 0 -0.048319 0.998832
vn 0 -0.048319 0.998832
vn 0 -0.055284 0.998471
vn 0 -0.055284 0.998471
vn -0.999197 -0.040073 0
vn -0.999197 -0.040073 0
vn -0.998948 -0.045859 0
vn -0.998948 -0.045859 0
vn 0 -0.043826 -0.999039
vn 0 -0.043826 -0.999039
vn 0 -0.049301 -0.998784
vn 0 -0.049301 -0.998784
vn 0.999339 -0.036345 0
vn 0.999339 -0.036345 0
vn 0.999164 -0.040892 0
vn 0.999164 -0.040892 0
vn 0 -0.043826 0.999039
vn 0 -0.043826 0.999039
vn 0 -0.049301 0.998784
vn 0 -0.049301 0.998784
vn -0.999339 -0.036345 0
vn -0.999339 -0.036345 0
vn -0.999164 -0.040892 0
vn -0.999164 -0.040892 0
vn 0 -0.064644 -0.997908
vn 0 -0.064644 -0.997908
vn 0 -0.070779 -0.997492
vn 0 -0.070779 -0.997492
vn 0.998561 -0.053629 0
vn 0.998561 -0.053629 0
vn 0.998274 -0.058729 0
vn 0.998274 -0.058729 0
vn 0 -0.064644 0.997908
vn 0 -0.064644 0.997908
vn 0 -0.070779 0.997492
vn 0 -0.070779 0.997492
vn -0.998561 -0.053628 0
vn -0.998561 -0.053628 0
vn -0.998274 -0.058729 0
vn -0.998274 -0.058729 0
vn 0 -0.056871 -0.998381
vn 0 -0.056871 -0.998381
vn 0 -0.06731 -0.997732
vn 0 -0.06731 -0.997732
vn 0.998887 -0.047171 0
vn 0.998887 -0.047171 0
vn 0.998439 -0.055848 0
vn 0.998439 -0.055848 0
vn 0 -0.056871 0.998381
vn 0 -0.056871 0.998381
vn 0 -0.06731 0.997732
vn 0 -0.06731 0.997732
vn -0.998887 -0.047171 0
vn -0.998887 -0.047171 0
vn -0.998439 -0.055848 0
vn -0.998439 -0.055848 0
vn 0 0 -1
vn 0 0 -1
vn 0 -0.020606 -0.999788
vn 0 -0.020606 -0.999788
vn 1 0 0
vn 1 0 0
vn 0.999854 -0.017081 0
vn 0.999854 -0.017081 0
vn 0 0 1
vn 0 0 1
vn 0 -0.020606 0.999788
vn 0 -0.020606 0.999788
vn -1 0 0
vn -1 0 0
vn -0.999854 -0.017081 0
vn -0.999854 -0.017081 0
vn 0 0 -1
vn 0 0 -1
vn 0 -0.022553 -0.999746
vn 0 -0.022553 -0.999746
vn 1 0 0
vn 1 0 0
vn 0.999825 -0.018694 0
vn 0.999825 -0.018694 0
vn 0 0 1
vn 0 0 1
vn 0 -0.022553 0.999746
vn 0 -0.022553 0.999746
vn -1 0 0
vn -1 0 0
vn -0.999825 -0.018694 0
vn -0.999825 -0.018694 0
vn 0 0 -1
vn 0 0 -1
vn 0 -0.031948 -0.99949
vn 0 -0.031948 -0.99949
vn 1 0 0
vn 1 0 0
vn 0.999649 -0.026481 0
vn 0.999649 -0.026481 0
vn 0 0 1
vn 0 0 1
vn 0 -0.031948 0.99949
vn 0 -0.031948 0.99949
vn -1 0 0
vn -1 0 0
vn -0.999649 -0.02648 0
vn -0.999649 -0.02648 0
vn 0 0 -1
vn 0 0 -1
vn 0 -0.026194 -0.999657
vn 0 -0.026194 -0.999657
vn 1 0 0
vn 1 0 0
vn 0.999764 -0.021712 0
vn 0.999764 -0.021712 0
vn 0 0 1
vn 0 0 1
vn 0 -0.026194 0.999657
vn 0 -0.026194 0.999657
vn -1 0 0
vn -1 0 0
vn -0.999764 -0.021712 0
vn -0.999764 -0.021712 0
#end 320 normals 

#begin 130 faces
usemtl initialShadingGroup
g pCube1
s 1
f 1/1/1 2/2/2 8/8/3 7/269/4 
f 2/2/2 3/3/5 9/9/6 8/8/3 
f 3/3/5 4/4/7 10/10/8 9/9/6 
f 4/4/7 5/5/9 11/11/10 10/10/8 
f 5/5/9 6/185/11 12/184/12 11/11/10 
s 2
f 7/180/13 8/179/14 14/14/15 13/13/16 
f 8/179/14 9/181/17 15/15/18 14/14/15 
f 9/181/17 10/182/19 16/16/20 15/15/18 
f 10/182/19 11/183/21 17/17/22 16/16/20 
f 11/183/21 12/12/23 18/18/24 17/17/22 
f 13/13/16 14/14/15 20/20/25 19/19/26 
f 14/14/15 15/15/18 21/21/27 20/20/25 
f 15/15/18 16/16/20 22/22/28 21/21/27 
f 16/16/20 17/17/22 23/23/29 22/22/28 
f 17/17/22 18/18/24 24/24/30 23/23/29 
f 19/19/26 20/20/25 26/26/31 25/25/32 
f 20/20/25 21/21/27 27/27/33 26/26/31 
f 21/21/27 22/22/28 28/28/34 27/27/33 
f 22/22/28 23/23/29 29/29/35 28/28/34 
f 23/23/29 24/24/30 30/30/36 29/29/35 
f 25/25/32 26/26/31 32/32/37 31/31/38 
f 26/26/31 27/27/33 33/33/39 32/32/37 
f 27/27/33 28/28/34 34/34/40 33/33/39 
f 28/28/34 29/29/35 35/35/41 34/34/40 
f 29/29/35 30/30/36 36/36/42 35/35/41 
f 31/31/38 32/32/37 38/38/43 37/37/44 
f 32/32/37 33/33/39 39/39/45 38/38/43 
f 33/33/39 34/34/40 40/40/46 39/39/45 
f 34/34/40 35/35/41 41/41/47 40/40/46 
f 35/35/41 36/36/42 42/42/48 41/41/47 
s 3
f 37/170/49 38/169/50 44/44/51 43/271/52 
f 38/169/50 39/171/53 45/45/54 44/44/51 
f 39/171/53 40/172/55 46/46/56 45/45/54 
f 40/172/55 41/173/57 47/47/58 46/46/56 
f 41/173/57 42/268/59 48/48/60 47/47/58 
s 4
f 43/43/61 44/145/62 50/50/63 49/49/64 
f 44/145/62 45/146/65 51/51/66 50/50/63 
f 45/146/65 46/147/67 52/52/68 51/51/66 
f 46/147/67 47/148/69 53/53/70 52/52/68 
f 47/148/69 48/149/71 54/54/72 53/53/70 
f 49/49/64 50/50/63 56/56/73 55/55/74 
s off
f 85/85/75 86/86/76 87/87/77 88/88/78 
s 5
f 70/70/79 73/73/80 74/238/81 71/71/82 
s off
f 89/89/83 90/90/84 91/91/85 92/92/86 
s 4
f 53/53/70 54/54/72 58/58/87 57/57/88 
f 55/55/74 56/56/73 60/60/89 59/59/90 
s 5
f 72/236/91 71/71/82 77/77/92 78/78/93 
f 71/71/82 74/238/81 79/79/94 77/77/92 
f 74/238/81 76/76/95 80/231/96 79/79/94 
s 4
f 57/57/88 58/58/87 62/62/97 61/61/98 
f 59/59/90 60/60/89 64/64/99 63/63/100 
s off
f 93/93/101 94/94/102 95/95/103 96/96/104 
s 5
f 77/77/92 79/79/94 83/83/105 81/227/106 
s off
f 97/97/107 98/98/108 99/99/109 100/100/110 
s 4
f 61/61/98 62/62/97 68/68/111 67/67/112 
f 63/63/100 64/64/99 2/154/113 1/159/114 
f 64/64/99 65/65/115 3/155/116 2/154/113 
f 65/65/115 66/66/117 4/156/118 3/155/116 
f 66/66/117 67/67/112 5/157/119 4/156/118 
f 67/67/112 68/68/111 6/158/120 5/157/119 
s 6
f 54/150/121 48/267/122 42/176/123 36/174/124 
f 58/152/125 54/150/121 36/174/124 30/178/126 
f 62/151/127 58/152/125 30/178/126 24/177/128 
f 68/153/129 62/151/127 24/177/128 18/175/130 
f 6/6/131 68/153/129 18/175/130 12/186/132 
s 7
f 43/161/133 49/160/134 31/166/135 37/272/136 
f 49/160/134 55/163/137 25/168/138 31/166/135 
f 55/163/137 59/162/139 19/167/140 25/168/138 
f 59/162/139 63/164/141 13/165/142 19/167/140 
f 63/164/141 1/270/143 7/7/144 13/165/142 
s off
f 50/134/145 51/133/146 70/257/147 69/69/148 
f 56/139/149 50/197/150 69/255/151 72/72/152 
f 51/133/153 52/135/154 73/205/155 70/257/156 
f 52/135/157 53/199/158 75/259/159 73/205/160 
f 53/137/161 57/141/162 76/261/163 75/200/164 
f 60/136/165 56/139/166 72/72/167 78/253/168 
f 57/141/169 61/138/170 80/80/171 76/261/172 
f 65/143/173 64/192/174 82/251/175 81/81/176 
f 64/140/177 60/136/178 78/253/179 82/193/180 
f 66/144/181 65/143/182 81/81/183 83/265/184 
f 61/138/185 67/187/186 84/263/187 80/80/188 
f 67/142/189 66/144/190 83/265/191 84/188/192 
s 8
f 113/113/193 114/114/194 86/86/195 85/85/196 
s 9
f 114/206/197 115/115/198 87/87/199 86/86/200 
s 10
f 115/248/201 116/116/202 88/88/203 87/87/204 
s 11
f 116/209/205 113/198/206 85/85/207 88/88/208 
s 12
f 105/105/209 106/106/210 90/90/211 89/89/212 
s 13
f 106/201/213 107/107/214 91/91/215 90/90/216 
s 14
f 107/224/217 108/108/218 92/92/219 91/91/220 
s 15
f 108/245/221 105/203/222 89/89/223 92/92/224 
s 16
f 121/121/225 122/122/226 94/94/227 93/93/228 
s 17
f 122/239/229 123/123/230 95/95/231 94/94/232 
s 18
f 123/215/233 124/124/234 96/96/235 95/95/236 
s 19
f 124/191/237 121/213/238 93/93/239 96/96/240 
s 20
f 129/129/241 130/130/242 98/98/243 97/97/244 
s 21
f 130/221/245 131/131/246 99/99/247 98/98/248 
s 22
f 131/189/249 132/132/250 100/100/251 99/99/252 
s 23
f 132/218/253 129/242/254 97/97/255 100/100/256 
s 12
f 73/260/257 75/75/258 102/102/259 101/101/260 
s 13
f 75/262/261 76/225/262 103/103/263 102/202/264 
s 14
f 76/74/265 74/247/266 104/246/267 103/226/268 
s 15
f 74/234/269 73/233/270 101/204/271 104/104/272 
s 12
f 101/101/260 102/102/259 106/106/210 105/105/209 
s 13
f 102/202/264 103/103/263 107/107/214 106/201/213 
s 14
f 103/226/268 104/246/267 108/108/218 107/224/217 
s 15
f 104/104/272 101/204/271 105/203/222 108/245/221 
s 8
f 69/258/273 70/207/274 110/110/275 109/109/276 
s 9
f 70/235/277 71/250/278 111/111/279 110/208/280 
s 10
f 71/237/281 72/210/282 112/112/283 111/249/284 
s 11
f 72/256/285 69/195/286 109/196/287 112/211/288 
s 8
f 109/109/276 110/110/275 114/114/194 113/113/193 
s 9
f 110/208/280 111/111/279 115/115/198 114/206/197 
s 10
f 111/249/284 112/112/283 116/116/202 115/248/201 
s 11
f 112/211/288 109/196/287 113/198/206 116/209/205 
s 16
f 78/229/289 77/241/290 118/118/291 117/117/292 
s 17
f 77/228/293 81/217/294 119/119/295 118/240/296 
s 18
f 81/252/297 82/82/298 120/120/299 119/216/300 
s 19
f 82/254/301 78/214/302 117/212/303 120/194/304 
s 16
f 117/117/292 118/118/291 122/122/226 121/121/225 
s 17
f 118/240/296 119/119/295 123/123/230 122/239/229 
s 18
f 119/216/300 120/120/299 124/124/234 123/215/233 
s 19
f 120/194/304 117/212/303 121/213/238 124/191/237 
s 20
f 79/232/305 80/222/306 126/126/307 125/125/308 
s 21
f 80/264/309 84/84/310 127/127/311 126/223/312 
s 22
f 84/266/313 83/219/314 128/128/315 127/190/316 
s 23
f 83/230/317 79/244/318 125/243/319 128/220/320 
s 20
f 125/125/308 126/126/307 130/130/242 129/129/241 
s 21
f 126/223/312 127/127/311 131/131/246 130/221/245 
s 22
f 127/190/316 128/128/315 132/132/250 131/189/249 
s 23
f 128/220/320 125/243/319 129/242/254 132/218/253 
#end 130 faces

#begin properties
#U3DPROPERTIES_00 table {Mesh table {SymPlane table {Point vector3d 0 0 0  Normal vector3d 1 0 0  Threshold double 0.01 Enabled bool false } Maps table {Density table {PrimType string "Polygon" Size int 1 DefaultValue double 1 ScaleType string "Log" MinValue double 0.1 MaxValue double 4 Data doubles { r 131 1 } } Pin table {PrimType string "Vertex" Size int 1 DefaultValue double 0 ScaleType string "Normalized" MinValue double 0 MaxValue double 1 Data doubles { r 272 0 } } Protect table {PrimType string "Vertex" Size int 1 DefaultValue double 0 ScaleType string "Normalized" MinValue double -1 MaxValue double 1 Data doubles { r 272 0 } } } } }
#end properties

#begin 0 fatal error vertex (that Unfold3D cannot handle)
#end 0 fatal error vertex (that Unfold3D cannot handle)

#begin 0 error vertex
#end 0 error vertex
